<svg xmlns="http://www.w3.org/2000/svg" width="38" height="38" fill="#fff" xmlns:v="https://vecta.io/nano"><path d="M21.488 6.726c-1.818-1.877-4.235-2.91-6.806-2.91S9.694 4.85 7.875 6.726c-3.753 3.874-3.753 10.178 0 14.052 1.818 1.877 4.235 2.91 6.807 2.91s4.988-1.034 6.806-2.91 2.819-4.372 2.819-7.026-1.001-5.149-2.819-7.026zm-12.838.8c1.611-1.663 3.753-2.579 6.031-2.579s4.42.916 6.031 2.579a8.84 8.84 0 0 1 2.381 4.762l-2.988 3.016a1.89 1.89 0 0 0-.957-.259 1.94 1.94 0 0 0-1.624.897l-4.392-1.422.001-.039c0-1.112-.876-2.016-1.954-2.016s-1.953.905-1.953 2.016a2.05 2.05 0 0 0 .258.999L7.18 17.946c-1.747-3.338-1.258-7.603 1.47-10.42zm11.356 9.535c0 .488-.385.885-.857.885s-.857-.397-.857-.885.385-.885.857-.885.857.397.857.885zm-7.968-2.581c0 .488-.385.885-.857.885s-.857-.397-.857-.885.385-.885.857-.885.857.397.857.885zm8.675 5.498c-1.611 1.663-3.753 2.579-6.031 2.579s-4.42-.916-6.031-2.579c-.32-.33-.609-.681-.867-1.047l2.491-2.666c.271.147.58.231.907.231.676 0 1.273-.357 1.624-.898l4.392 1.422-.001.039c0 1.112.876 2.017 1.953 2.017s1.954-.905 1.954-2.017a2.06 2.06 0 0 0-.23-.948l2.339-2.36c0 2.352-.887 4.563-2.498 6.226zM9.828 7.98l.719.854c1.7-1.525 4.083-1.995 6.22-1.227l.361-1.069a7.25 7.25 0 0 0-7.3 1.442zm8.707-.756l-.57.966c.29.182.569.392.828.622l.715-.858a7.42 7.42 0 0 0-.972-.73zM15.993 20.12c-1.233.268-2.501.155-3.666-.326l-.408 1.05a7.2 7.2 0 0 0 2.757.55 7.21 7.21 0 0 0 1.543-.167l-.226-1.107zm12.421 2.723l-.796.822-1.975-2.179c2.337-3.527 2.9-7.938 1.687-11.891l1.567-1.582a1.89 1.89 0 0 0 .925.241c1.077 0 1.954-.905 1.954-2.017a2.06 2.06 0 0 0-.213-.915l3.363-3.395v1.755h1.096V.017h-3.551v1.132h1.658l-3.319 3.35a1.9 1.9 0 0 0-.988-.278c-1.077 0-1.954.905-1.954 2.017a2.06 2.06 0 0 0 .247.981L26.916 8.43c-.646-1.589-1.594-3.077-2.846-4.369-5.177-5.344-13.599-5.343-18.776 0C.683 8.822.179 16.241 3.783 21.581l-.923.988a1.89 1.89 0 0 0-.907-.231C.876 22.338 0 23.242 0 24.354s.876 2.017 1.954 2.017 1.954-.905 1.954-2.017a2.05 2.05 0 0 0-.258-.999l.806-.863a13.66 13.66 0 0 0 .838.951c2.588 2.672 5.988 4.008 9.388 4.008a12.97 12.97 0 0 0 7.462-2.363l1.979 2.184-.823.85 9.586 9.861L38 32.704l-9.586-9.861zm1.409-17.49c.473 0 .857.397.857.885s-.385.885-.857.885-.857-.397-.857-.885.385-.885.857-.885zM1.954 25.239c-.473 0-.857-.397-.857-.885s.385-.885.857-.885.857.397.857.885-.385.885-.857.885zm4.116-2.596c-4.749-4.902-4.749-12.879 0-17.781a11.95 11.95 0 0 1 8.613-3.677 11.95 11.95 0 0 1 8.613 3.677c4.749 4.902 4.749 12.879 0 17.781s-12.476 4.902-17.225 0zm16.961 1.766c.359-.3.706-.622 1.04-.966.322-.333.625-.679.907-1.036l1.865 2.058-1.943 2.006-1.869-2.062zm9.855 11.975l-8.033-8.263 3.563-3.678 8.033 8.264-3.563 3.678zm-4.472-10.299l-1.569 1.619.775.8.793-.819 3.026 3.123.775-.8-3.801-3.923zm4.743 4.89l-.775.804.809.839.775-.804-.809-.839zM7.036 28.03H5.94v1.233h1.096V28.03zm0 6.911H5.94v1.233h1.096v-1.233zm9.029-4.533h-1.096v1.233h1.096v-1.233zM31.776 20.23H30.68v1.233h1.096V20.23zm1.244-9.819h-1.096v1.233h1.096v-1.233zm3.633 5.199h-1.096v1.233h1.096V15.61z"/></svg>