<svg xmlns="http://www.w3.org/2000/svg" width="42" height="42" fill="#fff" xmlns:v="https://vecta.io/nano"><path d="M21 33.378a12.38 12.38 0 0 1-8.752-21.13 12.38 12.38 0 0 1 13.489-2.683c2.262.937 4.195 2.523 5.555 4.559A12.38 12.38 0 0 1 33.377 21 12.39 12.39 0 0 1 21 33.378zm0-23.62A11.24 11.24 0 0 0 9.973 23.194c.434 2.181 1.505 4.184 3.077 5.756A11.24 11.24 0 0 0 32.242 21c-.003-2.981-1.189-5.838-3.297-7.946A11.25 11.25 0 0 0 21 9.758zm0 20.686a9.44 9.44 0 0 1-5.247-1.592 9.45 9.45 0 0 1-3.479-4.238 9.44 9.44 0 0 1-.537-5.457 9.45 9.45 0 0 1 7.421-7.421c1.832-.365 3.731-.177 5.457.537a9.43 9.43 0 0 1 4.238 3.478 9.45 9.45 0 0 1 1.592 5.247 9.46 9.46 0 0 1-2.769 6.675c-1.77 1.771-4.172 2.769-6.676 2.771zm0-17.753a8.31 8.31 0 0 0-5.876 14.184A8.31 8.31 0 0 0 29.309 21 8.32 8.32 0 0 0 21 12.691zm.945 8.491h-2.887c-.151 0-.295-.06-.401-.166a.57.57 0 0 1-.166-.401v-4.64a.57.57 0 0 1 .567-.567h2.887c.383-.005.762.065 1.117.208a2.91 2.91 0 0 1 .951.623 2.89 2.89 0 0 1 .636.942 2.88 2.88 0 0 1 0 2.228 2.89 2.89 0 0 1-.636.942c-.272.269-.596.48-.951.623a2.89 2.89 0 0 1-1.117.208zm-2.319-1.135h2.319a1.75 1.75 0 0 0 .68-.124c.216-.086.413-.215.579-.378s.298-.358.388-.572a1.75 1.75 0 0 0 .136-.678c0-.233-.046-.463-.136-.678s-.222-.409-.388-.572-.363-.292-.579-.378a1.75 1.75 0 0 0-.68-.124h-2.319v3.505z"/><path d="M22.683 25.824h-3.624a.57.57 0 0 1-.401-.166c-.107-.106-.166-.251-.166-.401v-4.643a.57.57 0 0 1 .568-.568h3.624a2.89 2.89 0 0 1 2.888 2.888 2.89 2.89 0 0 1-2.888 2.888v.002zm-3.056-1.135h3.056a1.75 1.75 0 0 0 1.752-1.752 1.75 1.75 0 0 0-1.752-1.752h-3.056v3.505zm-.568-8.147h-.829a.57.57 0 0 1-.401-.968c.106-.107.251-.166.401-.166h.829a.57.57 0 0 1 .567.567.57.57 0 0 1-.567.567z"/><path d="M19.524 16.542c-.151 0-.295-.06-.401-.166a.57.57 0 0 1-.166-.401V14.93a.57.57 0 0 1 .567-.568.57.57 0 0 1 .568.568v1.044a.57.57 0 0 1-.568.568zm1.808 0c-.151 0-.295-.06-.401-.166a.57.57 0 0 1-.166-.401V14.93a.57.57 0 0 1 .568-.568.57.57 0 0 1 .568.568v1.044a.57.57 0 0 1-.568.568zm-1.808 10.324a.57.57 0 0 1-.567-.567v-1.042a.57.57 0 0 1 .567-.568.57.57 0 0 1 .568.568v1.044a.57.57 0 0 1-.568.565zm1.808 0a.57.57 0 0 1-.568-.567v-1.042a.57.57 0 0 1 .568-.568.57.57 0 0 1 .568.568v1.044a.57.57 0 0 1-.568.565z"/><path d="M19.059 25.824h-.829c-.151 0-.295-.06-.401-.166a.57.57 0 0 1 .401-.969h.829a.57.57 0 0 1 .568.568c0 .151-.06.295-.166.401a.57.57 0 0 1-.401.166zM21 9.758c-.151 0-.295-.06-.401-.166a.57.57 0 0 1-.166-.401V5.253c0-.151.06-.295.166-.401a.57.57 0 0 1 .802 0 .57.57 0 0 1 .166.401V9.19c0 .151-.06.295-.166.401a.57.57 0 0 1-.401.166z"/><path d="M21 5.821a2.34 2.34 0 0 1-2.165-1.446 2.34 2.34 0 0 1-.133-1.354 2.35 2.35 0 0 1 .641-1.2c.327-.328.745-.551 1.2-.641a2.35 2.35 0 0 1 1.354.133 2.34 2.34 0 0 1 1.051.863c.257.385.395.838.395 1.302A2.35 2.35 0 0 1 21 5.821zm0-3.551a1.21 1.21 0 0 0-1.185 1.444 1.21 1.21 0 0 0 1.647.88 1.21 1.21 0 0 0 .746-1.116A1.21 1.21 0 0 0 21 2.27zm0 35.044a.57.57 0 0 1-.401-.166c-.107-.107-.166-.251-.166-.401V32.81c0-.151.06-.295.166-.401a.57.57 0 0 1 .802 0 .57.57 0 0 1 .166.401v3.937c0 .151-.06.295-.166.401a.57.57 0 0 1-.401.166z"/><path d="M21 40.865a2.34 2.34 0 0 1-2.165-1.446 2.34 2.34 0 0 1-.133-1.354 2.35 2.35 0 0 1 .641-1.2c.327-.328.745-.551 1.2-.641a2.35 2.35 0 0 1 1.354.133 2.34 2.34 0 0 1 1.051.863c.257.385.395.838.395 1.302A2.35 2.35 0 0 1 21 40.865zm0-3.551c-.239 0-.472.071-.671.204a1.21 1.21 0 0 0-.514 1.24c.047.234.162.45.331.618a1.21 1.21 0 0 0 2.062-.854A1.21 1.21 0 0 0 21 37.314zm15.747-15.746H32.81a.57.57 0 0 1-.568-.568.57.57 0 0 1 .568-.567h3.937a.57.57 0 0 1 .567.567.57.57 0 0 1-.568.568z"/><path d="M38.521 23.343a2.34 2.34 0 0 1-1.302-.395c-.386-.258-.686-.623-.863-1.052a2.34 2.34 0 0 1-.133-1.354 2.35 2.35 0 0 1 .641-1.2c.327-.328.745-.551 1.2-.641a2.35 2.35 0 0 1 1.354.133c.429.177.794.478 1.051.863s.395.838.395 1.302a2.35 2.35 0 0 1-2.343 2.343zm0-3.551a1.21 1.21 0 0 0-.854 2.062 1.21 1.21 0 0 0 1.858-.183 1.21 1.21 0 0 0-1.005-1.879zM9.19 21.568H5.253A.57.57 0 0 1 4.686 21a.57.57 0 0 1 .568-.567H9.19a.57.57 0 0 1 .568.567.57.57 0 0 1-.568.568z"/><path d="M3.478 23.343a2.34 2.34 0 0 1-1.302-.395c-.386-.258-.686-.623-.863-1.052a2.34 2.34 0 0 1-.133-1.354 2.35 2.35 0 0 1 .641-1.2c.327-.328.745-.551 1.2-.641a2.35 2.35 0 0 1 1.354.133 2.34 2.34 0 0 1 1.051.863c.257.385.395.838.395 1.302a2.35 2.35 0 0 1-2.343 2.343zm0-3.551a1.21 1.21 0 0 0-.854 2.062 1.21 1.21 0 0 0 .618.331 1.21 1.21 0 0 0 1.089-2.039 1.21 1.21 0 0 0-.854-.354zm7.703 14.902H6.65a.57.57 0 0 1-.568-.568.57.57 0 0 1 .568-.568h4.219l2.27-3.641a.57.57 0 0 1 .783-.182.57.57 0 0 1 .182.783l-2.436 3.909a.56.56 0 0 1-.208.197.57.57 0 0 1-.278.07z"/><path d="M4.875 36.47c-.463 0-.916-.138-1.301-.395s-.685-.623-.863-1.052-.224-.899-.133-1.354a2.35 2.35 0 0 1 .641-1.2c.327-.328.745-.551 1.2-.641a2.35 2.35 0 0 1 1.354.133 2.34 2.34 0 0 1 1.051.863c.257.385.395.838.395 1.302a2.35 2.35 0 0 1-2.343 2.343zm0-3.551a1.21 1.21 0 0 0-.853 2.062 1.21 1.21 0 0 0 2.061-.855 1.21 1.21 0 0 0-1.208-1.208zm8.747-20.569a.57.57 0 0 1-.276-.071.58.58 0 0 1-.207-.196l-2.27-3.641H6.65a.57.57 0 0 1-.568-.568.57.57 0 0 1 .568-.568h4.531c.096 0 .191.024.275.071a.57.57 0 0 1 .206.196l2.436 3.909a.57.57 0 0 1 .016.574c-.049.088-.12.162-.207.214a.57.57 0 0 1-.286.08z"/><path d="M4.875 10.216c-.463 0-.916-.138-1.301-.395s-.685-.623-.863-1.052-.224-.899-.133-1.354.314-.872.641-1.199a2.34 2.34 0 0 1 1.2-.641 2.35 2.35 0 0 1 1.354.133 2.34 2.34 0 0 1 1.051.863c.257.385.395.838.395 1.302a2.35 2.35 0 0 1-2.343 2.343zm0-3.551a1.21 1.21 0 0 0-.853 2.062 1.21 1.21 0 0 0 2.061-.854 1.21 1.21 0 0 0-1.208-1.208zM35.35 34.694h-4.531a.57.57 0 0 1-.482-.267l-2.438-3.909a.57.57 0 0 1 .182-.783.57.57 0 0 1 .783.182l2.27 3.642h4.219a.57.57 0 0 1 .401.969c-.107.107-.251.166-.401.166h-.002z"/><path d="M37.125 36.47a2.34 2.34 0 0 1-1.302-.395c-.386-.258-.686-.623-.863-1.052a2.34 2.34 0 0 1-.133-1.354 2.35 2.35 0 0 1 .641-1.2c.327-.328.745-.551 1.2-.641a2.34 2.34 0 0 1 2.8 2.298 2.35 2.35 0 0 1-2.343 2.343zm0-3.551a1.21 1.21 0 0 0-1.116.746 1.21 1.21 0 0 0 1.578 1.578c.221-.091.409-.246.542-.445a1.21 1.21 0 0 0-1.005-1.878zM28.379 12.35a.57.57 0 0 1-.567-.582.57.57 0 0 1 .086-.286l2.436-3.909a.57.57 0 0 1 .206-.196c.084-.047.179-.071.276-.071h4.534c.151 0 .295.06.401.166a.57.57 0 0 1 0 .802.57.57 0 0 1-.401.166h-4.217l-2.27 3.641a.57.57 0 0 1-.483.267z"/><path d="M37.125 10.216c-.463 0-.916-.137-1.302-.395s-.686-.623-.863-1.051-.224-.899-.133-1.354.314-.872.641-1.2.745-.551 1.2-.641.926-.044 1.354.133.794.478 1.051.863.395.838.395 1.302c-.001.621-.248 1.217-.687 1.656s-1.035.686-1.656.687zm0-3.551a1.21 1.21 0 0 0-.671.204c-.199.133-.353.321-.445.542a1.21 1.21 0 0 0 .262 1.316 1.21 1.21 0 0 0 1.316.262 1.21 1.21 0 0 0 .746-1.116 1.21 1.21 0 0 0-1.208-1.208z"/></svg>