<svg xmlns="http://www.w3.org/2000/svg" width="38" height="38" fill="none" xmlns:v="https://vecta.io/nano"><g clip-path="url(#A)" fill="#fff"><path d="M3.064 33.697H19v-1.226H3.064a1.84 1.84 0 0 1-1.839-1.839V3.664a1.84 1.84 0 0 1 1.839-1.839h26.968a1.84 1.84 0 0 1 1.839 1.839v14.097h1.226V3.664A3.07 3.07 0 0 0 30.032.6H3.064A3.07 3.07 0 0 0 0 3.664v26.968a3.07 3.07 0 0 0 3.064 3.065zM2.452 3.052h1.226v1.226H2.452V3.052zm2.451 0h1.226v1.226H4.903V3.052zm2.452 0h1.226v1.226H7.355V3.052zM2.452 5.503h28.193v1.226H2.452V5.503zM8.76 8.134L7.203 9.691c-1.316-.871-3.078-.604-4.077.618s-.909 3.002.207 4.118 2.896 1.206 4.118.207 1.49-2.761.618-4.077L9.626 9l-.866-.867zm-3.244 5.949a1.84 1.84 0 0 1-1.839-1.839 1.84 1.84 0 0 1 1.839-1.838 1.81 1.81 0 0 1 .788.184l-1.221 1.221.866.867 1.222-1.22c.12.245.183.514.184.787a1.84 1.84 0 0 1-1.839 1.839z"/><use href="#B"/><use href="#C"/><path d="M15.936 12.858h8.58v1.226h-8.58v-1.226zm6.129-2.452h6.129v1.226h-6.129v-1.226zM8.76 15.489l-1.557 1.557c-1.316-.871-3.078-.604-4.077.618s-.909 3.002.207 4.118 2.896 1.206 4.118.207 1.49-2.761.618-4.077l1.557-1.557-.866-.867zm-3.244 5.95A1.84 1.84 0 0 1 3.677 19.6a1.84 1.84 0 0 1 1.839-1.839 1.81 1.81 0 0 1 .788.184l-1.221 1.221.866.866 1.222-1.22c.12.245.183.514.184.788a1.84 1.84 0 0 1-1.839 1.839zm4.903-3.678h10.419v1.226H10.419v-1.226zm0 2.452h4.29v1.226h-4.29v-1.226zm5.517 0h4.903v1.226h-4.903v-1.226zm6.129-2.452h2.451v1.226h-2.451v-1.226zM8.76 22.844l-1.557 1.557c-1.316-.871-3.078-.604-4.077.618s-.909 3.002.207 4.118 2.896 1.205 4.118.207 1.49-2.761.618-4.077l1.557-1.557-.866-.867zm-3.244 5.949a1.84 1.84 0 0 1-1.839-1.839 1.84 1.84 0 0 1 1.839-1.839 1.81 1.81 0 0 1 .788.184L5.083 26.52l.866.866 1.222-1.22a1.81 1.81 0 0 1 .184.788 1.84 1.84 0 0 1-1.839 1.839zm4.903-3.677h7.968v1.226h-7.968v-1.226zm0 2.452h4.29v1.226h-4.29v-1.226zm5.517 0h2.451v1.226h-2.451v-1.226zm12.871 9.806c5.078 0 9.193-4.116 9.193-9.194s-4.116-9.194-9.193-9.194-9.194 4.116-9.194 9.194c.006 5.075 4.118 9.188 9.194 9.194zm0-17.161a7.97 7.97 0 0 1 7.968 7.968 7.97 7.97 0 0 1-7.968 7.968 7.97 7.97 0 0 1-7.968-7.968 7.98 7.98 0 0 1 7.968-7.968zm-3.739 8.306l-1.097.548 1.226 2.452a.61.61 0 0 0 .45.331.69.69 0 0 0 .095.008c.162 0 .318-.065.434-.18l7.354-7.355-.866-.867-6.754 6.753-.842-1.691z"/></g><defs><clipPath id="A"><path fill="#fff" d="M0 0h38v38H0z"/></clipPath><path id="B" d="M10.419 10.406h10.419v1.226H10.419v-1.226z"/><path id="C" d="M10.419 12.858h4.29v1.226h-4.29v-1.226z"/></defs></svg>