<svg xmlns="http://www.w3.org/2000/svg" width="38" height="37" fill="#fff" xmlns:v="https://vecta.io/nano"><path d="M23.686 30.722a1.76 1.76 0 0 0 1.757-1.757 1.76 1.76 0 0 0-1.757-1.757c-.763 0-1.407.491-1.649 1.171h-2.451v-3.514h2.451c.242.68.887 1.171 1.649 1.171a1.76 1.76 0 0 0 1.757-1.757 1.76 1.76 0 0 0-1.757-1.757c-.763 0-1.407.491-1.649 1.171h-2.451v-3.514h2.451c.242.68.887 1.171 1.649 1.171a1.76 1.76 0 0 0 1.757-1.757 1.76 1.76 0 0 0-1.757-1.757c-.763 0-1.407.491-1.649 1.171h-2.451v-1.171h-1.171v-2.451c.68-.243 1.171-.887 1.171-1.649a1.76 1.76 0 0 0-1.757-1.757 1.76 1.76 0 0 0-1.757 1.757c0 .763.491 1.407 1.171 1.649v2.451h-3.514v-2.451c.68-.243 1.172-.887 1.172-1.649a1.76 1.76 0 0 0-1.757-1.757 1.76 1.76 0 0 0-1.757 1.757c0 .763.491 1.407 1.172 1.649v2.451H9.042v-2.451c.68-.243 1.171-.887 1.171-1.649a1.76 1.76 0 0 0-1.757-1.757 1.76 1.76 0 0 0-1.757 1.757c0 .763.491 1.407 1.171 1.649v2.451H6.699v1.171h-2.45c-.242-.68-.887-1.171-1.649-1.171a1.76 1.76 0 0 0-1.757 1.757A1.76 1.76 0 0 0 2.6 21.35c.763 0 1.407-.491 1.649-1.171H6.7v3.514H4.249c-.242-.68-.887-1.171-1.649-1.171a1.76 1.76 0 0 0-1.757 1.757A1.76 1.76 0 0 0 2.6 26.036c.763 0 1.407-.491 1.649-1.171H6.7v3.514H4.249c-.242-.68-.887-1.171-1.649-1.171a1.76 1.76 0 0 0-1.757 1.757A1.76 1.76 0 0 0 2.6 30.722c.763 0 1.407-.491 1.649-1.171H6.7v1.171h1.171v2.451c-.68.242-1.171.887-1.171 1.65a1.76 1.76 0 0 0 1.757 1.757 1.76 1.76 0 0 0 1.757-1.757c0-.763-.491-1.407-1.171-1.65v-2.451h3.514v2.451c-.68.242-1.171.887-1.171 1.65a1.76 1.76 0 0 0 1.757 1.757 1.76 1.76 0 0 0 1.757-1.757c0-.763-.491-1.407-1.171-1.65v-2.451h3.514v2.451c-.68.242-1.171.887-1.171 1.65a1.76 1.76 0 0 0 1.757 1.757 1.76 1.76 0 0 0 1.757-1.757c0-.763-.491-1.407-1.171-1.65v-2.451h1.171V29.55h2.451c.242.68.887 1.171 1.649 1.171zm0-2.343c.323 0 .586.263.586.586s-.262.586-.586.586-.586-.262-.586-.586.262-.586.586-.586zm0-4.686c.323 0 .586.262.586.586s-.262.586-.586.586-.586-.262-.586-.586.262-.586.586-.586zm0-4.686c.323 0 .586.262.586.586s-.262.586-.586.586-.586-.262-.586-.586.262-.586.586-.586zM2.599 20.178c-.323 0-.586-.262-.586-.586s.262-.586.586-.586.586.262.586.586-.262.586-.586.586zm0 4.686c-.323 0-.586-.262-.586-.586s.262-.586.586-.586.586.262.586.586-.262.586-.586.586zm0 4.686c-.323 0-.586-.262-.586-.586s.262-.586.586-.586.586.263.586.586-.262.586-.586.586zm15.229-16.401c.323 0 .586.263.586.586s-.262.586-.586.586-.586-.263-.586-.586.262-.586.586-.586zm-4.686 0c.323 0 .586.263.586.586s-.262.586-.586.586-.586-.263-.586-.586.262-.586.586-.586zm-4.686 0c.323 0 .586.263.586.586s-.262.586-.586.586-.586-.263-.586-.586.262-.586.586-.586zm0 22.258c-.323 0-.586-.262-.586-.586s.262-.586.586-.586.586.262.586.586-.262.586-.586.586zm4.686 0c-.323 0-.586-.262-.586-.586s.262-.586.586-.586.586.262.586.586-.262.586-.586.586zm4.686 0c-.323 0-.586-.262-.586-.586s.262-.586.586-.586.586.262.586.586-.262.586-.586.586zm.586-5.857H7.871V19.007h10.543V29.55zM34.519 9.634v.001a9.29 9.29 0 0 0-1.004-2.416l1.868-1.868-3.314-3.313-1.868 1.869c-.759-.45-1.568-.786-2.415-1.005V.263H23.1v2.639c-.847.218-1.656.555-2.415 1.004l-1.868-1.868-3.314 3.313 1.868 1.869a9.29 9.29 0 0 0-1.004 2.416h-2.053v1.171h2.998l.095-.469a8.12 8.12 0 0 1 1.196-2.879l.264-.399-1.709-1.709 1.657-1.656 1.709 1.709.399-.264a8.11 8.11 0 0 1 2.879-1.196l.469-.095V1.435h2.343v2.413l.469.095a8.11 8.11 0 0 1 2.879 1.196l.399.264 1.709-1.709 1.657 1.656-1.709 1.709.264.399a8.11 8.11 0 0 1 1.196 2.879l.095.469h2.412v2.343h-2.412l-.095.469a8.11 8.11 0 0 1-1.196 2.878l-.264.399 1.709 1.709-1.657 1.657-1.709-1.709-.399.264c-.885.586-1.853.989-2.879 1.196l-.469.096v2.998h1.171v-2.053a9.25 9.25 0 0 0 2.415-1.004l1.868 1.868 3.314-3.314-1.868-1.868a9.29 9.29 0 0 0 1.004-2.416h2.639V9.634h-2.639zm-9.076 7.03v1.172c3.23 0 5.857-2.628 5.857-5.857s-2.628-5.857-5.857-5.857-5.857 2.628-5.857 5.857h1.172c0-2.584 2.102-4.686 4.686-4.686s4.686 2.102 4.686 4.686-2.102 4.686-4.686 4.686zm-8.2 3.514h-8.2v1.171h8.2v-1.171zm0 7.029h-1.171v1.171h1.171v-1.171zm-2.343 0H9.043v1.171H14.9v-1.171zm7.498 7.86l.233 1.149a18.1 18.1 0 0 0 14.163-14.163l-1.149-.233c-1.357 6.69-6.557 11.891-13.248 13.248zM15.602 1.775L15.369.627A18.1 18.1 0 0 0 1.206 14.79l1.149.232A16.93 16.93 0 0 1 15.602 1.775z"/></svg>