<svg xmlns="http://www.w3.org/2000/svg" width="18" height="18" fill="none" xmlns:v="https://vecta.io/nano"><g clip-path="url(#A)"><path d="M18 9A9 9 0 1 0 0 9c0 4.493 3.291 8.216 7.594 8.891v-6.29H5.309V9h2.285V7.017c0-2.255 1.343-3.501 3.4-3.501.984 0 2.015.176 2.015.176v2.215h-1.136c-1.117 0-1.466.694-1.466 1.406V9h2.496l-.399 2.602h-2.097v6.289C14.709 17.216 18 13.493 18 9z" fill="#1877f2"/><path d="M12.503 11.602L12.902 9h-2.496V7.313c0-.712.348-1.406 1.466-1.406h1.135V3.692s-1.03-.176-2.014-.176c-2.057 0-3.4 1.246-3.4 3.501V9H5.309v2.602h2.285v6.289c.459.072.928.109 1.406.109a9.06 9.06 0 0 0 1.406-.109v-6.29h2.097v.001z" fill="#fff"/></g><defs><clipPath id="A"><path fill="#fff" d="M0 0h18v18H0z"/></clipPath></defs></svg>