<svg xmlns="http://www.w3.org/2000/svg" width="17" height="17" fill="none" xmlns:v="https://vecta.io/nano"><path d="M8.074 5.839A2.69 2.69 0 0 0 5.39 8.524a2.69 2.69 0 0 0 2.684 2.685 2.69 2.69 0 0 0 2.685-2.685 2.69 2.69 0 0 0-2.685-2.684zm8.051 2.684l-.052-3.323c-.062-1.289-.356-2.433-1.299-3.375S12.688.589 11.399.527L8.076.474c-1.112 0-2.213-.01-3.323.052-1.289.062-2.433.356-3.375 1.299S.142 3.912.079 5.201L.027 8.524l.052 3.323c.062 1.289.356 2.433 1.299 3.375s2.086 1.237 3.375 1.299l3.323.052 3.323-.052c1.289-.062 2.433-.356 3.375-1.299s1.236-2.086 1.299-3.375l.052-3.323zm-8.051 4.13c-2.286 0-4.13-1.845-4.13-4.13s1.845-4.13 4.13-4.13 4.13 1.845 4.13 4.13-1.845 4.13-4.13 4.13zm4.3-7.465c-.534 0-.965-.431-.965-.965s.431-.965.965-.965.965.431.965.965c0 .127-.025.252-.073.369s-.119.224-.209.313-.196.161-.313.209-.243.073-.369.073z" fill="#fff" fill-opacity=".8"/></svg>