<svg xmlns="http://www.w3.org/2000/svg" width="38" height="38" fill="#fff" xmlns:v="https://vecta.io/nano"><path d="M37.243 34.658H4.538l4.127-4.61a2.57 2.57 0 0 0 1.213.303 2.6 2.6 0 0 0 2.315-1.424l4.217 1.069c.112 1.337 1.23 2.39 2.59 2.39a2.61 2.61 0 0 0 1.686-4.594l3.439-8.251 2.449 6.269a2.61 2.61 0 1 0 4.24 2.023 2.6 2.6 0 0 0-.139-.841l3.004-3.016a.76.76 0 0 0 0-1.075c-.296-.297-.775-.297-1.071 0l-2.834 2.845a2.58 2.58 0 0 0-1.56-.524l-.238.011-3.011-7.709 3.025-7.258.224.01c1.204 0 2.219-.826 2.513-1.942h4.766a.76.76 0 0 0 0-1.52H30.67c-.353-1.022-1.32-1.758-2.457-1.758a2.61 2.61 0 0 0-1.629 4.642l-2.414 5.793-3.527-9.029a2.61 2.61 0 0 0-1.736-4.551 2.61 2.61 0 0 0-2.599 2.61c0 .623.219 1.195.582 1.644l-6.24 9.492a2.58 2.58 0 0 0-1.749.007l-5.36-7.078V.824a.76.76 0 0 0-.757-.76.76.76 0 0 0-.757.76v7.472H.757a.76.76 0 0 0 0 1.52h1.27v7.637H.757a.76.76 0 0 0 0 1.52h1.27v7.822H.757a.76.76 0 1 0 0 1.52h1.27v7.102a.76.76 0 0 0 .757.76h6.522v.997a.76.76 0 0 0 .757.76.76.76 0 0 0 .757-.76v-.997h7.608v.997a.76.76 0 0 0 .757.76.76.76 0 0 0 .757-.76v-.997h7.792v.997a.76.76 0 0 0 .757.76.76.76 0 0 0 .757-.76v-.997h7.996a.76.76 0 0 0 0-1.52zm-9.029-7.915a1.09 1.09 0 1 1 0 2.18 1.09 1.09 0 1 1 0-2.18zm0-20.165a1.09 1.09 0 1 1 0 2.18 1.09 1.09 0 1 1 0-2.18zM9.879 28.831a1.09 1.09 0 1 1 0-2.18 1.09 1.09 0 1 1 0 2.18zM19 30.866a1.09 1.09 0 1 1 0-2.18 1.09 1.09 0 1 1 0 2.18zm-.092-27.432a1.09 1.09 0 1 1 0 2.18 1.09 1.09 0 1 1 0-2.18zM9.786 17.031a1.09 1.09 0 1 1 0 2.18 1.09 1.09 0 1 1 0-2.18zm-6.245-5.933l4.15 5.481c-.316.432-.504.965-.504 1.542a2.61 2.61 0 0 0 2.6 2.61 2.61 2.61 0 0 0 2.6-2.61 2.6 2.6 0 0 0-.516-1.558l6.274-9.544a2.58 2.58 0 0 0 .763.115 2.6 2.6 0 0 0 .361-.026l4.062 10.4-4.033 9.676a2.6 2.6 0 0 0-2.57 1.325l-4.27-1.082c-.155-1.291-1.253-2.295-2.58-2.295a2.61 2.61 0 0 0-2.6 2.61 2.6 2.6 0 0 0 .31 1.235L3.54 33.499v-22.4zm32.717 9.122c-.296-.297-.775-.297-1.071 0l-.599.601a.76.76 0 0 0 0 1.075c.148.148.342.223.535.223a.75.75 0 0 0 .535-.223l.599-.601a.76.76 0 0 0 0-1.075z"/></svg>