<svg xmlns="http://www.w3.org/2000/svg" width="18" height="18" fill="none" xmlns:v="https://vecta.io/nano"><g clip-path="url(#A)"><path d="M0 9a9 9 0 1 1 18 0A9 9 0 1 1 0 9z" fill="#0077b5"/><path fill-rule="evenodd" d="M6.494 5.559c0 .588-.443 1.059-1.154 1.059h-.013c-.685 0-1.128-.471-1.128-1.059 0-.601.456-1.059 1.154-1.059s1.128.457 1.141 1.059zM6.36 7.454v6.128H4.32V7.454h2.04zm7.355 6.128v-3.514c0-1.883-1.006-2.759-2.348-2.759-1.083 0-1.567.595-1.838 1.012v-.868h-2.04v6.128h2.04V10.16c0-.183.013-.366.067-.497.147-.366.483-.745 1.046-.745.739 0 1.034.562 1.034 1.386v3.279h2.039z" fill="#fff"/></g><defs><clipPath id="A"><path fill="#fff" d="M0 0h18v18H0z"/></clipPath></defs></svg>