<svg xmlns="http://www.w3.org/2000/svg" width="35" height="35" fill="none" xmlns:v="https://vecta.io/nano"><style><![CDATA[.B{fill:#af51c5}]]></style><use href="#J" class="B"/><use href="#J" fill="url(#A)"/><use href="#K" class="B"/><use href="#K" fill="url(#B)"/><use href="#L" class="B"/><use href="#L" fill="url(#C)"/><use href="#M" class="B"/><use href="#M" fill="url(#D)"/><use href="#N" class="B"/><use href="#N" fill="url(#E)"/><use href="#O" class="B"/><use href="#O" fill="url(#F)"/><use href="#P" class="B"/><use href="#P" fill="url(#G)"/><use href="#Q" class="B"/><use href="#Q" fill="url(#H)"/><use href="#R" class="B"/><use href="#R" fill="url(#I)"/><defs><linearGradient id="A" x1="12.635" y1="-7.011" x2="24.727" y2="44.425" href="#S"><stop stop-color="#2f79cb"/><stop offset="1" stop-color="#af51c5"/></linearGradient><linearGradient id="B" x1="6.106" y1="-1.297" x2="6.639" y2="4.929" href="#S"><stop stop-color="#2f79cb"/><stop offset="1" stop-color="#af51c5"/></linearGradient><linearGradient id="C" x1="0.974" y1="-0.126" x2="8.806" y2="12.036" href="#S"><stop stop-color="#2f79cb"/><stop offset="1" stop-color="#af51c5"/></linearGradient><linearGradient id="D" x1="25.299" y1="29.97" x2="25.832" y2="36.196" href="#S"><stop stop-color="#2f79cb"/><stop offset="1" stop-color="#af51c5"/></linearGradient><linearGradient id="E" x1="32.24" y1="19.068" x2="40.084" y2="31.224" href="#S"><stop stop-color="#2f79cb"/><stop offset="1" stop-color="#af51c5"/></linearGradient><linearGradient id="F" x1="32.24" y1="-0.125" x2="40.08" y2="12.028" href="#S"><stop stop-color="#2f79cb"/><stop offset="1" stop-color="#af51c5"/></linearGradient><linearGradient id="G" x1="25.299" y1="-1.297" x2="25.833" y2="4.929" href="#S"><stop stop-color="#2f79cb"/><stop offset="1" stop-color="#af51c5"/></linearGradient><linearGradient id="H" x1="6.104" y1="29.97" x2="6.638" y2="36.196" href="#S"><stop stop-color="#2f79cb"/><stop offset="1" stop-color="#af51c5"/></linearGradient><linearGradient id="I" x1="0.973" y1="19.07" x2="8.813" y2="31.223" href="#S"><stop stop-color="#2f79cb"/><stop offset="1" stop-color="#af51c5"/></linearGradient><path id="J" d="M27.976 9.656a2.78 2.78 0 0 0 2.059-2.672v-.007a2.76 2.76 0 0 0-2.762-2.762h-.007a2.78 2.78 0 0 0-1.684.578c-.483.372-.83.893-.987 1.481a7.75 7.75 0 0 1-7.469 5.687 7.75 7.75 0 0 1-7.469-5.687 2.78 2.78 0 0 0-2.671-2.059h-.007a2.76 2.76 0 0 0-2.762 2.762v.007a2.78 2.78 0 0 0 2.059 2.671 7.75 7.75 0 0 1 5.687 7.469 7.75 7.75 0 0 1-5.687 7.469 2.78 2.78 0 0 0-2.059 2.671v.007a2.76 2.76 0 0 0 2.762 2.762h.007c.609-.003 1.201-.206 1.684-.578a2.78 2.78 0 0 0 .987-1.481 7.75 7.75 0 0 1 2.775-4.103c1.349-1.027 2.998-1.583 4.694-1.583a7.75 7.75 0 0 1 7.469 5.686 2.78 2.78 0 0 0 2.671 2.059h.007a2.76 2.76 0 0 0 2.762-2.762v-.007a2.78 2.78 0 0 0-2.059-2.671 7.75 7.75 0 0 1-5.686-7.469 7.75 7.75 0 0 1 5.686-7.469h0z"/><path id="K" d="M3.614 1.636c.089.088.203.147.327.167s.251.002.363-.053c1.027-.496 2.183-.661 3.308-.473s2.164.721 2.974 1.525c.112.112.262.177.421.181a.61.61 0 0 0 .429-.162.6.6 0 0 0 .186-.428.6.6 0 0 0-.176-.432C10.458.977 9.189.324 7.814.093S5.025.065 3.771.673a.6.6 0 0 0-.326.441.6.6 0 0 0 .169.522z"/><path id="L" d="M.675 3.766C.068 5.017-.137 6.425.09 7.797s.874 2.64 1.851 3.628c.103.108.241.175.39.189a.62.62 0 0 0 .418-.114.6.6 0 0 0 .237-.438.6.6 0 0 0-.175-.466c-.808-.81-1.344-1.851-1.534-2.979s-.024-2.287.474-3.317c.055-.113.074-.24.054-.364s-.079-.238-.167-.328a.6.6 0 0 0-.522-.169.6.6 0 0 0-.441.326z"/><path id="M" d="M29.947 32.501c-1.028.496-2.184.661-3.309.473s-2.164-.722-2.974-1.526a.61.61 0 0 0-.847-.019.6.6 0 0 0-.187.428.6.6 0 0 0 .176.433 6.72 6.72 0 0 0 7.675 1.288.6.6 0 0 0 .326-.441.6.6 0 0 0-.169-.521c-.089-.088-.203-.147-.327-.167a.6.6 0 0 0-.363.053z"/><path id="N" d="M31.428 22.817a.61.61 0 0 0 .019.847c.805.81 1.338 1.85 1.526 2.977s.022 2.283-.475 3.311c-.055.113-.074.24-.053.363s.079.238.167.327a.6.6 0 0 0 .521.169.6.6 0 0 0 .441-.325c.61-1.255.814-2.669.584-4.045s-.883-2.647-1.869-3.635a.6.6 0 0 0-.433-.176.6.6 0 0 0-.429.188z"/><path id="O" d="M32.499 4.301c.497 1.028.663 2.184.474 3.31s-.722 2.166-1.526 2.975a.61.61 0 0 0-.019.847.6.6 0 0 0 .428.187.6.6 0 0 0 .433-.176c.985-.988 1.639-2.258 1.869-3.634s.027-2.789-.582-4.044a.6.6 0 0 0-.441-.325.6.6 0 0 0-.521.169c-.088.089-.147.203-.167.327s-.002.251.053.363z"/><path id="P" d="M23.664 2.803c.81-.805 1.85-1.338 2.975-1.526s2.283-.023 3.31.474a.6.6 0 0 0 .69-.114.6.6 0 0 0 .169-.521.6.6 0 0 0-.325-.441c-1.255-.609-2.669-.813-4.044-.582a6.72 6.72 0 0 0-3.634 1.869.6.6 0 0 0-.176.433.6.6 0 0 0 .187.428.61.61 0 0 0 .847-.019z"/><path id="Q" d="M10.587 31.447c-.81.804-1.85 1.338-2.975 1.526s-2.283.023-3.31-.474c-.113-.055-.24-.074-.363-.053s-.238.079-.327.167a.6.6 0 0 0-.169.521.6.6 0 0 0 .325.441c1.255.609 2.669.813 4.044.582a6.72 6.72 0 0 0 3.634-1.869.6.6 0 0 0 .176-.433.6.6 0 0 0-.187-.428.61.61 0 0 0-.847.019z"/><path id="R" d="M1.751 29.949c-.497-1.028-.663-2.184-.474-3.31s.722-2.165 1.526-2.975a.61.61 0 0 0 .019-.847.6.6 0 0 0-.195-.137c-.074-.032-.153-.049-.233-.05s-.16.014-.234.044a.6.6 0 0 0-.199.132c-.985.988-1.639 2.258-1.869 3.634s-.027 2.789.582 4.044a.6.6 0 0 0 .181.216c.077.057.166.094.26.109a.6.6 0 0 0 .521-.169c.088-.089.147-.203.167-.327s.002-.251-.053-.363z"/><linearGradient id="S" gradientUnits="userSpaceOnUse"/></defs></svg>