<svg xmlns="http://www.w3.org/2000/svg" width="14" height="18" fill="none" xmlns:v="https://vecta.io/nano"><path d="M.921 6.705a5.65 5.65 0 0 1 .38-2.071 5.3 5.3 0 0 1 1.056-1.697 7.17 7.17 0 0 1 1.548-1.252c.587-.355 1.222-.623 1.885-.795A8.07 8.07 0 0 1 7.849.626c1.073 0 2.071.227 2.997.679a5.67 5.67 0 0 1 2.252 1.972c.578.862.865 1.836.865 2.923 0 .652-.064 1.289-.195 1.913s-.333 1.228-.608 1.802c-.263.555-.606 1.068-1.019 1.523-.415.447-.918.804-1.477 1.049a4.67 4.67 0 0 1-1.926.393c-.461 0-.92-.108-1.374-.326s-.78-.514-.976-.896L6.1 12.805l-.237.967-.209.722a4.88 4.88 0 0 1-.265.724l-.324.635c-.14.272-.297.536-.469.789l-.633.881-.14.05-.093-.102-.153-1.917c0-.625.074-1.325.221-2.103l.678-2.928.528-2.068c-.216-.44-.325-1.014-.325-1.721 0-.564.176-1.092.529-1.59s.801-.743 1.344-.743c.415 0 .737.137.968.413s.345.622.345 1.044c0 .448-.149 1.097-.448 1.946s-.448 1.483-.448 1.904c0 .427.153.784.458 1.063a1.58 1.58 0 0 0 1.11.423 2.18 2.18 0 0 0 1.04-.255c.316-.165.59-.402.8-.69.457-.627.783-1.34.958-2.095l.203-1.13a7.88 7.88 0 0 0 .066-1.014c0-1.174-.373-2.09-1.114-2.745s-1.715-.981-2.908-.981c-1.357 0-2.492.439-3.401 1.319S2.813 5.598 2.813 6.951a2.93 2.93 0 0 0 .131.865c.084.278.175.499.274.663l.274.463c.085.145.129.249.129.311 0 .19-.05.438-.151.744s-.228.459-.377.459a1.62 1.62 0 0 1-.174-.032 2.08 2.08 0 0 1-.922-.57c-.267-.278-.478-.605-.621-.963a6.58 6.58 0 0 1-.331-1.101 4.6 4.6 0 0 1-.124-1.086z" fill="#fff" fill-opacity=".8"/></svg>