<svg xmlns="http://www.w3.org/2000/svg" width="18" height="18" fill="none" xmlns:v="https://vecta.io/nano"><g clip-path="url(#A)"><g fill="#28a8ea"><path d="M5.22 10.44A5.22 5.22 0 1 0 5.22 0a5.22 5.22 0 1 0 0 10.44zM12.78 18a5.22 5.22 0 0 0 0-10.44 5.22 5.22 0 0 0 0 10.44z"/><path d="M9 17.64A8.64 8.64 0 1 0 9 .36a8.64 8.64 0 1 0 0 17.28z"/></g><g fill-rule="evenodd"><path d="M6.759 8.836c-.338-.223-.62-.52-.824-.87a2.4 2.4 0 0 1-.282-1.201 2.16 2.16 0 0 1 .508-1.453 3.06 3.06 0 0 1 1.325-.886 5.12 5.12 0 0 1 1.736-.292 6.73 6.73 0 0 1 1.155.089 4.16 4.16 0 0 1 .801.207c.238.081.453.218.626.4a.81.81 0 0 1 .194.538.78.78 0 0 1-.204.561c-.065.07-.145.125-.233.161s-.183.054-.278.052a.92.92 0 0 1-.381-.085c-.294-.131-.596-.242-.906-.331-.285-.075-.578-.111-.873-.108a1.99 1.99 0 0 0-1.092.279.91.91 0 0 0-.436.817.82.82 0 0 0 .226.574c.175.182.382.329.61.436l1.145.505a1.17 1.17 0 0 1 .164.066 8.13 8.13 0 0 1 1.418.728c.353.231.651.537.872.896a2.36 2.36 0 0 1 .315 1.243 2.5 2.5 0 0 1-.437 1.5c-.307.417-.732.732-1.22.905a5.15 5.15 0 0 1-1.834.299 5.78 5.78 0 0 1-2.5-.473 1.36 1.36 0 0 1-.515-.401.9.9 0 0 1-.167-.544.71.71 0 0 1 .22-.555.81.81 0 0 1 .568-.2 1.45 1.45 0 0 1 .663.171l.6.285a3.03 3.03 0 0 0 .519.164 2.97 2.97 0 0 0 .666.069 1.78 1.78 0 0 0 1.119-.299c.123-.096.222-.221.287-.363s.096-.298.09-.454a.87.87 0 0 0-.236-.597c-.201-.207-.436-.378-.695-.505-.306-.162-.737-.359-1.293-.591-.497-.198-.973-.445-1.42-.738z" fill="#fff"/><g fill="#000"><path opacity=".1" d="M6.851.263c-.228-.076-.462-.137-.699-.18-1.421.456-2.714 1.245-3.769 2.301S.539 4.731.083 6.153c.043.237.103.47.18.699a3.96 3.96 0 0 0 .241.601A8.62 8.62 0 0 1 7.452.504C7.258.407 7.057.327 6.851.263h0z"/><path opacity=".1" d="M6.851.263C5.257.656 3.8 1.477 2.638 2.639A9.01 9.01 0 0 0 .262 6.851a3.96 3.96 0 0 0 .241.601A8.62 8.62 0 0 1 7.452.504C7.259.407 7.058.327 6.851.263h0zm10.887 10.886a3.91 3.91 0 0 0-.242-.601 8.62 8.62 0 0 1-6.948 6.948 3.99 3.99 0 0 0 .601.241 5.1 5.1 0 0 0 .698.18 9.38 9.38 0 0 0 3.769-2.3 9.39 9.39 0 0 0 2.301-3.769 5.12 5.12 0 0 0-.18-.699z"/><path opacity=".1" d="M17.496 10.548a8.62 8.62 0 0 1-6.948 6.948c.194.097.395.177.601.241 1.594-.393 3.051-1.215 4.212-2.376s1.983-2.618 2.376-4.212a3.96 3.96 0 0 0-.241-.601h0z"/></g></g></g><defs><clipPath id="A"><path fill="#fff" d="M0 0h18v18H0z"/></clipPath></defs></svg>