<svg xmlns="http://www.w3.org/2000/svg" width="42" height="37" fill="#fff" xmlns:v="https://vecta.io/nano"><path d="M34.825.002c-3.202 0-5.732 2.695-5.732 6.053s2.569 6.011 5.732 6.011 5.771-2.695 5.771-6.053S38.027.002 34.825.002zm0 10.737c-2.49 0-4.506-2.114-4.506-4.726s2.056-4.685 4.506-4.685c2.49 0 4.506 2.114 4.506 4.726s-2.016 4.685-4.506 4.685zm1.819-3.772c-.039-.124-.039-.207-.119-.332-.039-.083-.079-.207-.158-.29s-.119-.166-.198-.249-.158-.166-.277-.207c-.079-.083-.198-.124-.277-.166-.118-.041-.198-.124-.316-.166l-.316-.124c-.04 0-.119-.041-.158-.083s-.119-.041-.158-.083-.119-.041-.158-.083l-.119-.124c-.039-.041-.079-.083-.079-.166-.04-.041-.04-.124-.04-.166v-.207c0-.041.04-.124.04-.166.04-.041.04-.124.079-.166l.119-.124c.039-.041.119-.083.198-.083.079-.041.119-.041.198-.041h.119.119c.079 0 .119 0 .198.041.079 0 .158.041.198.041s.119.041.158.041c.079 0 .119.041.158.041l.198.083.04-.249.079-.663V3.11l-.158-.041c-.039 0-.119-.041-.158-.041s-.079-.041-.158-.041c-.039 0-.119-.041-.198-.041s-.119-.041-.198-.041h-.039v-.58-.207h-.198-.553-.198v.207.622h-.04c-.118.041-.237.083-.356.166-.119.041-.198.124-.277.207s-.158.166-.237.29c-.079.083-.119.207-.158.332l-.119.373c-.04.124-.04.29-.04.415s0 .207.04.332.039.207.119.332c.039.083.119.207.158.29.079.083.119.166.198.249s.158.166.277.207c.079.083.198.124.277.166.118.041.237.124.316.166l.316.124c.04 0 .119.041.158.083s.119.041.158.083.079.083.118.083l.119.124c.04.041.04.083.079.166 0 .041.04.124.04.207v.207a.33.33 0 0 1-.079.166l-.119.124c-.04.041-.079.083-.158.124-.04.041-.119.041-.158.083-.04 0-.119.041-.198.041h-.158-.158-.198c-.079 0-.158-.041-.198-.041-.079 0-.158-.041-.237-.083s-.158-.041-.237-.083c-.039 0-.079-.041-.119-.041s-.079-.041-.119-.041l-.237-.124-.04.29-.079.746v.124l.119.041c.158-.041.237 0 .356.041.079.041.198.083.277.083.079.041.198.041.316.083s.198.041.316.041h.079v.622.207h.198.553.198v-.207-.663h.039c.119-.041.237-.083.356-.166.118-.041.198-.124.316-.207.079-.083.158-.166.237-.29.079-.083.119-.207.198-.332l.119-.373c.04-.124.04-.249.04-.415 0-.124 0-.207-.04-.332zm-4.586 5.887c-.198-.29-.632-.332-.909-.124l-6.404 5.348-8.262-3.607c-.198-.083-.435-.041-.593.083l-8.855 6.633c-.277.207-.356.622-.158.912a.57.57 0 0 0 .514.29c.119 0 .237-.041.356-.124l8.578-6.426 8.301 3.607c.198.083.474.041.633-.083l6.68-5.555c.277-.207.316-.663.119-.953zm9.25 22.718h-2.925V16.377c0-.373-.277-.663-.633-.663h-5.81c-.356 0-.633.29-.633.663v19.194h-2.135V23.01c0-.373-.277-.663-.633-.663h-5.85c-.356 0-.633.29-.633.663v12.561h-2.135V22.015c0-.373-.277-.663-.632-.663H13.48c-.356 0-.632.29-.632.663v13.556h-2.135v-9.659c0-.373-.277-.663-.633-.663H4.23c-.356 0-.632.29-.632.663v9.659H.632c-.356 0-.632.29-.632.663s.277.663.632.663H4.19h5.811 3.479 5.811 3.399 5.811 3.4 5.811 3.558c.356 0 .633-.29.633-.663.039-.373-.237-.663-.593-.663zm-31.9 0H4.862v-8.996h4.546v8.996zm9.25 0h-4.546V22.679h4.546v12.893zm9.21 0h-4.546V23.674h4.546v11.898zm9.25 0h-4.546V17.041h4.546v18.531z"/></svg>