<svg xmlns="http://www.w3.org/2000/svg" width="18" height="15" fill="none" xmlns:v="https://vecta.io/nano"><path d="M17.774 1.957c-.623.269-1.301.462-2 .538.725-.431 1.268-1.112 1.528-1.915-.681.405-1.426.689-2.204.839-.325-.347-.718-.624-1.155-.813S13.036.32 12.56.321c-1.925 0-3.473 1.56-3.473 3.475a3.99 3.99 0 0 0 .086.796A9.87 9.87 0 0 1 2.012.957a3.45 3.45 0 0 0-.473 1.754c0 1.206.613 2.269 1.548 2.894-.551-.022-1.089-.173-1.57-.442v.043c0 1.688 1.194 3.088 2.784 3.409a3.68 3.68 0 0 1-.914.118 4.62 4.62 0 0 1-.656-.053 3.48 3.48 0 0 0 3.247 2.409 6.96 6.96 0 0 1-4.312 1.485c-.291 0-.56-.01-.839-.043 1.54.988 3.367 1.558 5.334 1.558 6.387 0 9.882-5.291 9.882-9.884 0-.151 0-.301-.01-.452a7.48 7.48 0 0 0 1.741-1.796z" fill="#fff" fill-opacity=".8"/></svg>