<svg xmlns="http://www.w3.org/2000/svg" width="18" height="18" fill="none" xmlns:v="https://vecta.io/nano"><g clip-path="url(#A)"><path d="M0 9a9 9 0 1 1 18 0A9 9 0 1 1 0 9z" fill="#3fa4f1"/><path d="M8.73 7.315l.019.311-.315-.038c-1.146-.146-2.146-.642-2.996-1.475l-.416-.413-.107.305c-.226.68-.082 1.398.39 1.881.252.267.195.305-.239.146-.151-.051-.284-.089-.296-.07-.044.045.107.623.227.852.164.318.497.629.862.814l.309.146-.365.006c-.352 0-.365.006-.327.14.126.413.623.852 1.178 1.043l.39.133-.34.203c-.514.296-1.095.457-1.687.47-.283.006-.516.032-.516.051 0 .064.768.419 1.215.559a5.32 5.32 0 0 0 4.13-.47c.85-.502 1.7-1.5 2.096-2.466.214-.515.428-1.455.428-1.907 0-.293.019-.331.371-.68.208-.203.403-.426.441-.489.063-.121.057-.121-.264-.013-.535.191-.611.165-.346-.121.195-.203.428-.572.428-.68 0-.019-.095.013-.201.07a3.51 3.51 0 0 1-.554.216l-.34.108-.309-.21c-.17-.114-.409-.241-.535-.279-.321-.089-.812-.077-1.102.025-.787.286-1.284 1.023-1.228 1.83h0z" fill="#fff"/></g><defs><clipPath id="A"><path fill="#fff" d="M0 0h18v18H0z"/></clipPath></defs></svg>